<?xml version="1.0" ?><!-- Uploaded to: SVG Repo, www.svgrepo.com, Generator: SVG Repo Mixer Tools -->
<svg fill="#000000" width="800px" height="800px" viewBox="0 0 35 35" data-name="Layer 2" id="Layer_2" xmlns="http://www.w3.org/2000/svg"><path d="M 18.44 34.68 C 17.455 34.68 16.472 34.599 15.5 34.44 C 5.601 32.816 -1.111 23.481 0.5 13.58 C 1.377 8.095 4.73 3.319 9.59 0.63 C 10.416 0.168 11.436 0.231 12.2 0.79 C 13.04 1.347 13.44 2.371 13.2 3.35 L 11.99 3.1 L 13.22 3.32 C 11.775 10.902 16.071 18.406 23.34 21 C 26.062 21.945 28.991 22.128 31.81 21.53 C 33.653 21.168 35.197 22.937 34.588 24.715 C 34.555 24.812 34.515 24.907 34.47 25 C 31.327 30.942 25.162 34.665 18.44 34.68 Z M 11.954 20.229 L 14.38 23.091 L 11.991 22.797 L 9.766 20.831 L 11.954 20.229 Z"/></svg>